# xmcd
#
# Track frame offsets:
#	150
#	13738
#	37127
#	47440
#	60889
#	74978
#	85598
#	95800
#	110263
#	126268
#	138874
#	151145
#	165088
#	181504
#	197586
#	208060
#	220728
#
# Disc length: 3181 seconds
#
# Revision: 0
# Processed by: cddbd v1.4PL0 Copyright (c) Steve Scherf et al.
# Submitted via: dBpowerAMP V4.0
#
DISCID=df0c6b11
DTITLE=Staley - Thomsen - Weed Patch
DYEAR=1999
DGENRE=Blues
TTITLE0=A Burden On You
TTITLE1=Cold And Rainy Night
TTITLE2=You Can't Get The Stuff
TTITLE3=Money Is Honey
TTITLE4=Everything Is Broken
TTITLE5=I Live The Life I Love
TTITLE6=Jelly Roll
TTITLE7=Taint Nobody's Biz-ness
TTITLE8=Brownsville
TTITLE9=Why Don't You Do Right
TTITLE10=Mean O'l Memphis Mama Blues
TTITLE11=Wait Tilll your Papa Gets Home
TTITLE12=Alligator Bop
TTITLE13=Outskirts Of Town
TTITLE14=Heartbreak Train
TTITLE15=Crazy Cajun Heart
TTITLE16=Rita Jean
EXTD=
EXTT0=
EXTT1=
EXTT2=
EXTT3=
EXTT4=
EXTT5=
EXTT6=
EXTT7=
EXTT8=
EXTT9=
EXTT10=
EXTT11=
EXTT12=
EXTT13=
EXTT14=
EXTT15=
EXTT16=
PLAYORDER=
